<mxfile host="app.diagrams.net" agent="Mozilla/5.0 (Windows NT 10.0; Win64; x64) AppleWebKit/537.36 (KHTML, like Gecko) Chrome/138.0.0.0 Safari/537.36" version="28.0.4">
  <diagram name="PÃ¡gina-1" id="Gk9LCo-fvcHjbSW4Pl5K">
    <mxGraphModel grid="1" page="1" gridSize="10" guides="1" tooltips="1" connect="1" arrows="1" fold="1" pageScale="1" pageWidth="827" pageHeight="1169" math="0" shadow="0">
      <root>
        <mxCell id="0" />
        <mxCell id="1" parent="0" />
        <mxCell id="tizdLpUgYko0gKcYcaVk-1" value="Actor" style="shape=umlActor;verticalLabelPosition=bottom;verticalAlign=top;html=1;outlineConnect=0;" vertex="1" parent="1">
          <mxGeometry x="190" y="220" width="30" height="60" as="geometry" />
        </mxCell>
        <mxCell id="tizdLpUgYko0gKcYcaVk-2" value="&lt;span style=&quot;color: rgb(56, 58, 66); font-family: jetbrains, &amp;quot;jetbrains Fallback&amp;quot;, Menlo, Monaco, monospace, monospace; font-size: 14px; text-align: left; white-space: pre; background-color: rgb(255, 255, 255);&quot;&gt;Interfaz&lt;/span&gt;" style="rounded=1;whiteSpace=wrap;html=1;" vertex="1" parent="1">
          <mxGeometry x="474" y="210" width="120" height="60" as="geometry" />
        </mxCell>
        <mxCell id="tizdLpUgYko0gKcYcaVk-3" value="" style="endArrow=none;html=1;rounded=0;exitX=1;exitY=0.3333333333333333;exitDx=0;exitDy=0;exitPerimeter=0;entryX=0;entryY=0.5;entryDx=0;entryDy=0;" edge="1" parent="1" source="tizdLpUgYko0gKcYcaVk-1" target="tizdLpUgYko0gKcYcaVk-2">
          <mxGeometry width="50" height="50" relative="1" as="geometry">
            <mxPoint x="310" y="275" as="sourcePoint" />
            <mxPoint x="360" y="225" as="targetPoint" />
          </mxGeometry>
        </mxCell>
        <mxCell id="tizdLpUgYko0gKcYcaVk-4" value="&lt;span style=&quot;color: rgb(56, 58, 66); font-family: jetbrains, &amp;quot;jetbrains Fallback&amp;quot;, Menlo, Monaco, monospace, monospace; font-size: 14px; text-align: left; white-space: pre; background-color: rgb(255, 255, 255);&quot;&gt;Base de Datos&lt;/span&gt;" style="rounded=1;whiteSpace=wrap;html=1;" vertex="1" parent="1">
          <mxGeometry x="1170" y="430" width="120" height="60" as="geometry" />
        </mxCell>
        <mxCell id="tizdLpUgYko0gKcYcaVk-5" value="&lt;span style=&quot;color: rgb(56, 58, 66); font-family: jetbrains, &amp;quot;jetbrains Fallback&amp;quot;, Menlo, Monaco, monospace, monospace; font-size: 14px; text-align: left; white-space: pre; background-color: rgb(255, 255, 255);&quot;&gt;Controlador&lt;/span&gt;" style="rounded=1;whiteSpace=wrap;html=1;" vertex="1" parent="1">
          <mxGeometry x="820" y="210" width="120" height="60" as="geometry" />
        </mxCell>
        <mxCell id="tizdLpUgYko0gKcYcaVk-6" value="&lt;br&gt;&lt;span style=&quot;color: rgb(56, 58, 66); font-family: jetbrains, &amp;quot;jetbrains Fallback&amp;quot;, Menlo, Monaco, monospace, monospace; font-size: 14px; text-align: left; white-space: pre; background-color: rgb(255, 255, 255);&quot;&gt;ValidadorDatos&lt;/span&gt;" style="rounded=1;whiteSpace=wrap;html=1;" vertex="1" parent="1">
          <mxGeometry x="1140" y="210" width="120" height="60" as="geometry" />
        </mxCell>
        <mxCell id="tizdLpUgYko0gKcYcaVk-7" value="&#xa;&lt;span style=&quot;color: rgb(56, 58, 66); font-family: jetbrains, &amp;quot;jetbrains Fallback&amp;quot;, Menlo, Monaco, monospace, monospace; font-size: 14px; font-style: normal; font-variant-ligatures: normal; font-variant-caps: normal; font-weight: 400; letter-spacing: normal; orphans: 2; text-align: left; text-indent: 0px; text-transform: none; widows: 2; word-spacing: 0px; -webkit-text-stroke-width: 0px; white-space: pre; background-color: rgb(255, 255, 255); text-decoration-thickness: initial; text-decoration-style: initial; text-decoration-color: initial; display: inline !important; float: none;&quot;&gt; GestorPerfil&lt;/span&gt;&#xa;&#xa;" style="rounded=1;whiteSpace=wrap;html=1;" vertex="1" parent="1">
          <mxGeometry x="820" y="430" width="120" height="60" as="geometry" />
        </mxCell>
        <mxCell id="tizdLpUgYko0gKcYcaVk-8" value="" style="endArrow=classic;html=1;rounded=0;" edge="1" parent="1">
          <mxGeometry width="50" height="50" relative="1" as="geometry">
            <mxPoint x="260" y="230" as="sourcePoint" />
            <mxPoint x="430" y="230" as="targetPoint" />
          </mxGeometry>
        </mxCell>
        <mxCell id="tizdLpUgYko0gKcYcaVk-9" value="&lt;span style=&quot;color: rgb(56, 58, 66); font-family: jetbrains, &amp;quot;jetbrains Fallback&amp;quot;, Menlo, Monaco, monospace, monospace; font-size: 14px; text-align: left; white-space: pre; background-color: rgb(255, 255, 255);&quot;&gt;1:M&lt;/span&gt;&lt;span style=&quot;color: rgb(56, 58, 66); font-family: jetbrains, &amp;quot;jetbrains Fallback&amp;quot;, Menlo, Monaco, monospace, monospace; font-size: 14px; text-align: left; white-space: pre; background-color: rgb(255, 255, 255);&quot;&gt;odificar datos perfil&lt;/span&gt;" style="text;html=1;align=center;verticalAlign=middle;whiteSpace=wrap;rounded=0;" vertex="1" parent="1">
          <mxGeometry x="310" y="200" width="60" height="30" as="geometry" />
        </mxCell>
        <mxCell id="tizdLpUgYko0gKcYcaVk-10" value="" style="endArrow=none;html=1;rounded=0;exitX=1;exitY=0.5;exitDx=0;exitDy=0;entryX=0;entryY=0.5;entryDx=0;entryDy=0;" edge="1" parent="1" source="tizdLpUgYko0gKcYcaVk-2" target="tizdLpUgYko0gKcYcaVk-5">
          <mxGeometry width="50" height="50" relative="1" as="geometry">
            <mxPoint x="670" y="340" as="sourcePoint" />
            <mxPoint x="924" y="340" as="targetPoint" />
          </mxGeometry>
        </mxCell>
        <mxCell id="tizdLpUgYko0gKcYcaVk-11" value="" style="endArrow=classic;html=1;rounded=0;" edge="1" parent="1">
          <mxGeometry width="50" height="50" relative="1" as="geometry">
            <mxPoint x="630" y="230" as="sourcePoint" />
            <mxPoint x="800" y="230" as="targetPoint" />
          </mxGeometry>
        </mxCell>
        <mxCell id="tizdLpUgYko0gKcYcaVk-12" value="&lt;span style=&quot;color: rgb(56, 58, 66); font-family: jetbrains, &amp;quot;jetbrains Fallback&amp;quot;, Menlo, Monaco, monospace, monospace; font-size: 14px; text-align: left; white-space: pre; background-color: rgb(255, 255, 255);&quot;&gt; 2:E&lt;/span&gt;&lt;span style=&quot;color: rgb(56, 58, 66); font-family: jetbrains, &amp;quot;jetbrains Fallback&amp;quot;, Menlo, Monaco, monospace, monospace; font-size: 14px; text-align: left; white-space: pre; background-color: rgb(255, 255, 255);&quot;&gt;ditarPerfil&lt;/span&gt;" style="text;html=1;align=center;verticalAlign=middle;whiteSpace=wrap;rounded=0;" vertex="1" parent="1">
          <mxGeometry x="680" y="200" width="60" height="30" as="geometry" />
        </mxCell>
        <mxCell id="tizdLpUgYko0gKcYcaVk-13" value="" style="endArrow=none;html=1;rounded=0;exitX=1;exitY=0.5;exitDx=0;exitDy=0;entryX=0;entryY=0.5;entryDx=0;entryDy=0;" edge="1" parent="1" source="tizdLpUgYko0gKcYcaVk-5" target="tizdLpUgYko0gKcYcaVk-6">
          <mxGeometry width="50" height="50" relative="1" as="geometry">
            <mxPoint x="1010" y="220" as="sourcePoint" />
            <mxPoint x="1236" y="220" as="targetPoint" />
          </mxGeometry>
        </mxCell>
        <mxCell id="tizdLpUgYko0gKcYcaVk-14" value="" style="endArrow=classic;html=1;rounded=0;" edge="1" parent="1">
          <mxGeometry width="50" height="50" relative="1" as="geometry">
            <mxPoint x="960" y="229" as="sourcePoint" />
            <mxPoint x="1130" y="229" as="targetPoint" />
          </mxGeometry>
        </mxCell>
        <mxCell id="tizdLpUgYko0gKcYcaVk-15" value="3 :&amp;nbsp;&lt;span style=&quot;color: rgba(0, 0, 0, 0); font-family: monospace; font-size: 0px; text-align: start; text-wrap-mode: nowrap;&quot;&gt;&lt;span style=&quot;color: rgb(56, 58, 66); font-family: jetbrains, &amp;quot;jetbrains Fallback&amp;quot;, Menlo, Monaco, monospace, monospace; font-size: 14px; white-space-collapse: preserve; background-color: rgb(255, 255, 255);&quot;&gt;validarDatos&lt;/span&gt;%3CmxGraphModel%3E%3Croot%3E%3CmxCell%20id%3D%220%22%2F%3E%3CmxCell%20id%3D%221%22%20parent%3D%220%22%2F%3E%3CmxCell%20id%3D%222%22%20value%3D%22%22%20style%3D%22endArrow%3Dclassic%3Bhtml%3D1%3Brounded%3D0%3B%22%20edge%3D%221%22%20parent%3D%221%22%3E%3CmxGeometry%20width%3D%2250%22%20height%3D%2250%22%20relative%3D%221%22%20as%3D%22geometry%22%3E%3CmxPoint%20x%3D%22510%22%20y%3D%2240%22%20as%3D%22sourcePoint%22%2F%3E%3CmxPoint%20x%3D%22680%22%20y%3D%2240%22%20as%3D%22targetPoint%22%2F%3E%3C%2FmxGeometry%3E%3C%2FmxCell%3E%3C%2Froot%3E%3C%2FmxGraphModel%3E%3CmxGraphModel%3E%3Croot%3E%3CmxCell%20id%3D%220%22%2F%3E%3CmxCell%20id%3D%221%22%20parent%3D%220%22%2F%3E%3CmxCell%20id%3D%222%22%20value%3D%22%22%20style%3D%22endArrow%3Dclassic%3Bhtml%3D1%3Brounded%3D0%3B%22%20edge%3D%221%22%20parent%3D%221%22%3E%3CmxGeometry%20width%3D%2250%22%20height%3D%2250%22%20relative%3D%221%22%20as%3D%22geometry%22%3E%3CmxPoint%20x%3D%22510%22%20y%3D%2240%22%20as%3D%22sourcePoint%22%2F%3E%3CmxPoint%20x%3D%22680%22%20y%3D%2240%22%20as%3D%22targetPoint%22%2F%3E%3C%2FmxGeometry%3E%3C%2FmxCell%3E%3C%2Froot%3E%3C%2FmxGraphModel%3E3CmxGraphModel%3E%3Croot%3E%3CmxCell%20id%3D%220%22%2F%3E%3CmxCell%20id%3D%221%22%20parent%3D%220%22%2F%3E%3CmxCell%20id%3D%222%22%20value%3D%22%22%20style%3D%22endArrow%3Dclassic%3Bhtml%3D1%3Brounded%3D0%3B%22%20edge%3D%221%22%20parent%3D%221%22%3E%3CmxGeometry%20width%3D%2250%22%20height%3D%2250%22%20relative%3D%221%22%20as%3D%22geometry%22%3E%3CmxPoint%20x%3D%22510%22%20y%3D%2240%22%20as%3D%22sourcePoint%22%2F%3E%3CmxPoint%20x%3D%22680%22%20y%3D%2240%22%20as%3D%22targetPoint%22%2F%3E%3C%2FmxGeometry%3E%3C%2FmxCell%3E%3C%2Froot%3E%3C%2FmxGraphModel%3E%3CmxGraphModel%3E%3Croot%3E%3CmxCell%20id%3D%220%22%2F%3E%3CmxCell%20id%3D%221%22%20parent%3D%220%22%2F%3E%3CmxCell%20id%3D%222%22%20value%3D%22%22%20style%3D%22endArrow%3Dclassic%3Bhtml%3D1%3Brounded%3D0%3B%22%20edge%3D%221%22%20parent%3D%221%22%3E%3CmxGeometry%20width%3D%2250%22%20height%3D%2250%22%20relative%3D%221%22%20as%3D%22geometry%22%3E%3CmxPoint%20x%3D%22510%22%20y%3D%2240%22%20as%3D%22sourcePoint%22%2F%3E%3CmxPoint%20x%3D%22680%22%20y%3D%2240%22%20as%3D%22targetPoint%22%2F%3E%3C%2FmxGeometry%3E%3C%2FmxCell%3E%3C%2Froot%3E%3C%2FmxGraphModel%3E&lt;/span&gt;&lt;span style=&quot;color: rgba(0, 0, 0, 0); font-family: monospace; font-size: 0px; text-align: start; text-wrap-mode: nowrap;&quot;&gt;%3CmxGraphModel%3E%3Croot%3E%3CmxCell%20id%3D%220%22%2F%3E%3CmxCell%20id%3D%221%22%20parent%3D%220%22%2F%3E%3CmxCell%20id%3D%222%22%20value%3D%22%22%20style%3D%22endArrow%3Dclassic%3Bhtml%3D1%3Brounded%3D0%3B%22%20edge%3D%221%22%20parent%3D%221%22%3E%3CmxGeometry%20width%3D%2250%22%20height%3D%2250%22%20relative%3D%221%22%20as%3D%22geometry%22%3E%3CmxPoint%20x%3D%22510%22%20y%3D%2240%22%20as%3D%22sourcePoint%22%2F%3E%3CmxPoint%20x%3D%22680%22%20y%3D%2240%22%20as%3D%22targetPoint%22%2F%3E%3C%2FmxGeometry%3E%3C%2FmxCell%3E%3C%2Froot%3E%3C%2FmxGraphModel%3E&lt;/span&gt;" style="text;html=1;align=center;verticalAlign=middle;whiteSpace=wrap;rounded=0;" vertex="1" parent="1">
          <mxGeometry x="960" y="200" width="170" height="30" as="geometry" />
        </mxCell>
        <mxCell id="tizdLpUgYko0gKcYcaVk-16" value="" style="endArrow=none;html=1;rounded=0;exitX=0.5;exitY=0;exitDx=0;exitDy=0;entryX=0.5;entryY=0;entryDx=0;entryDy=0;" edge="1" parent="1" source="tizdLpUgYko0gKcYcaVk-5" target="tizdLpUgYko0gKcYcaVk-6">
          <mxGeometry width="50" height="50" relative="1" as="geometry">
            <mxPoint x="920" y="180" as="sourcePoint" />
            <mxPoint x="1146" y="180" as="targetPoint" />
            <Array as="points">
              <mxPoint x="880" y="190" />
              <mxPoint x="1200" y="190" />
            </Array>
          </mxGeometry>
        </mxCell>
        <mxCell id="tizdLpUgYko0gKcYcaVk-17" value="4: D&lt;span style=&quot;color: rgb(56, 58, 66); font-family: jetbrains, &amp;quot;jetbrains Fallback&amp;quot;, Menlo, Monaco, monospace, monospace; font-size: 14px; text-align: left; white-space: pre; background-color: rgb(255, 255, 255);&quot;&gt;atosValidos&lt;/span&gt;" style="text;html=1;align=center;verticalAlign=middle;whiteSpace=wrap;rounded=0;" vertex="1" parent="1">
          <mxGeometry x="980" y="140" width="120" height="30" as="geometry" />
        </mxCell>
        <mxCell id="tizdLpUgYko0gKcYcaVk-18" value="" style="endArrow=block;dashed=1;endFill=0;endSize=12;html=1;rounded=0;" edge="1" parent="1">
          <mxGeometry width="160" relative="1" as="geometry">
            <mxPoint x="1110" y="170" as="sourcePoint" />
            <mxPoint x="960" y="170" as="targetPoint" />
          </mxGeometry>
        </mxCell>
        <mxCell id="tizdLpUgYko0gKcYcaVk-19" value="" style="endArrow=none;html=1;rounded=0;exitX=0.5;exitY=1;exitDx=0;exitDy=0;entryX=0.5;entryY=0;entryDx=0;entryDy=0;" edge="1" parent="1">
          <mxGeometry width="50" height="50" relative="1" as="geometry">
            <mxPoint x="879.5" y="270" as="sourcePoint" />
            <mxPoint x="879.5" y="430" as="targetPoint" />
          </mxGeometry>
        </mxCell>
        <mxCell id="tizdLpUgYko0gKcYcaVk-20" value="" style="endArrow=classic;html=1;rounded=0;" edge="1" parent="1">
          <mxGeometry width="50" height="50" relative="1" as="geometry">
            <mxPoint x="890" y="310" as="sourcePoint" />
            <mxPoint x="890" y="400" as="targetPoint" />
          </mxGeometry>
        </mxCell>
        <mxCell id="tizdLpUgYko0gKcYcaVk-21" value="5: A&lt;span style=&quot;color: rgb(56, 58, 66); font-family: jetbrains, &amp;quot;jetbrains Fallback&amp;quot;, Menlo, Monaco, monospace, monospace; font-size: 14px; text-align: left; white-space: pre; background-color: rgb(255, 255, 255);&quot;&gt;ctualizarPerfil&lt;/span&gt;" style="text;html=1;align=center;verticalAlign=middle;whiteSpace=wrap;rounded=0;" vertex="1" parent="1">
          <mxGeometry x="890" y="340" width="170" height="30" as="geometry" />
        </mxCell>
        <mxCell id="tizdLpUgYko0gKcYcaVk-22" value="" style="endArrow=none;html=1;rounded=0;exitX=1;exitY=0.5;exitDx=0;exitDy=0;entryX=0;entryY=0.5;entryDx=0;entryDy=0;" edge="1" parent="1" source="tizdLpUgYko0gKcYcaVk-7" target="tizdLpUgYko0gKcYcaVk-4">
          <mxGeometry width="50" height="50" relative="1" as="geometry">
            <mxPoint x="940" y="459.5" as="sourcePoint" />
            <mxPoint x="1140" y="459.5" as="targetPoint" />
          </mxGeometry>
        </mxCell>
        <mxCell id="tizdLpUgYko0gKcYcaVk-23" value="" style="endArrow=classic;html=1;rounded=0;" edge="1" parent="1">
          <mxGeometry width="50" height="50" relative="1" as="geometry">
            <mxPoint x="960" y="450" as="sourcePoint" />
            <mxPoint x="1130" y="450" as="targetPoint" />
          </mxGeometry>
        </mxCell>
        <mxCell id="tizdLpUgYko0gKcYcaVk-24" value="&lt;div style=&quot;text-align: left;&quot;&gt;&lt;font face=&quot;jetbrains, jetbrains Fallback, Menlo, Monaco, monospace, monospace&quot; color=&quot;#383a42&quot;&gt;&lt;span style=&quot;font-size: 14px; white-space: pre; background-color: rgb(255, 255, 255);&quot;&gt;6:&lt;/span&gt;&lt;/font&gt;&lt;span style=&quot;background-color: rgb(255, 255, 255); color: rgb(56, 58, 66); font-family: jetbrains, &amp;quot;jetbrains Fallback&amp;quot;, Menlo, Monaco, monospace, monospace; font-size: 14px; white-space: pre;&quot;&gt;actualizarInformacionUsuario&lt;/span&gt;&lt;/div&gt;" style="text;html=1;align=center;verticalAlign=middle;whiteSpace=wrap;rounded=0;" vertex="1" parent="1">
          <mxGeometry x="1030" y="420" width="60" height="30" as="geometry" />
        </mxCell>
        <mxCell id="tizdLpUgYko0gKcYcaVk-25" value="" style="endArrow=none;html=1;rounded=0;exitX=0.5;exitY=1;exitDx=0;exitDy=0;entryX=0.5;entryY=1;entryDx=0;entryDy=0;" edge="1" parent="1" source="tizdLpUgYko0gKcYcaVk-7" target="tizdLpUgYko0gKcYcaVk-4">
          <mxGeometry width="50" height="50" relative="1" as="geometry">
            <mxPoint x="1000" y="590" as="sourcePoint" />
            <mxPoint x="1320" y="590" as="targetPoint" />
            <Array as="points">
              <mxPoint x="880" y="510" />
              <mxPoint x="1230" y="510" />
            </Array>
          </mxGeometry>
        </mxCell>
        <mxCell id="tizdLpUgYko0gKcYcaVk-26" value="" style="endArrow=block;dashed=1;endFill=0;endSize=12;html=1;rounded=0;" edge="1" parent="1">
          <mxGeometry width="160" relative="1" as="geometry">
            <mxPoint x="1130" y="500" as="sourcePoint" />
            <mxPoint x="980" y="500" as="targetPoint" />
          </mxGeometry>
        </mxCell>
        <mxCell id="tizdLpUgYko0gKcYcaVk-27" value="&lt;span style=&quot;color: rgb(56, 58, 66); font-family: jetbrains, &amp;quot;jetbrains Fallback&amp;quot;, Menlo, Monaco, monospace, monospace; font-size: 14px; text-align: left; white-space: pre; background-color: rgb(255, 255, 255);&quot;&gt;7: &lt;/span&gt;&lt;span style=&quot;color: rgb(56, 58, 66); font-family: jetbrains, &amp;quot;jetbrains Fallback&amp;quot;, Menlo, Monaco, monospace, monospace; font-size: 14px; text-align: left; white-space: pre; background-color: rgb(255, 255, 255);&quot;&gt;actualizarInformacionUsuario&lt;/span&gt;" style="text;html=1;align=center;verticalAlign=middle;whiteSpace=wrap;rounded=0;" vertex="1" parent="1">
          <mxGeometry x="1010" y="470" width="60" height="30" as="geometry" />
        </mxCell>
        <mxCell id="tizdLpUgYko0gKcYcaVk-31" value="" style="endArrow=none;html=1;rounded=0;exitX=0.5;exitY=1;exitDx=0;exitDy=0;entryX=0.5;entryY=0;entryDx=0;entryDy=0;" edge="1" parent="1">
          <mxGeometry width="50" height="50" relative="1" as="geometry">
            <mxPoint x="850" y="270" as="sourcePoint" />
            <mxPoint x="850" y="430" as="targetPoint" />
          </mxGeometry>
        </mxCell>
        <mxCell id="tizdLpUgYko0gKcYcaVk-32" value="" style="endArrow=block;dashed=1;endFill=0;endSize=12;html=1;rounded=0;" edge="1" parent="1">
          <mxGeometry width="160" relative="1" as="geometry">
            <mxPoint x="840" y="420" as="sourcePoint" />
            <mxPoint x="840" y="280" as="targetPoint" />
          </mxGeometry>
        </mxCell>
        <mxCell id="tizdLpUgYko0gKcYcaVk-33" value="8:P&lt;span style=&quot;color: rgb(56, 58, 66); font-family: jetbrains, &amp;quot;jetbrains Fallback&amp;quot;, Menlo, Monaco, monospace, monospace; font-size: 14px; text-align: left; white-space: pre; background-color: rgb(255, 255, 255);&quot;&gt;erfilActualizado&lt;/span&gt;" style="text;html=1;align=center;verticalAlign=middle;whiteSpace=wrap;rounded=0;" vertex="1" parent="1">
          <mxGeometry x="730" y="340" width="60" height="30" as="geometry" />
        </mxCell>
        <mxCell id="tizdLpUgYko0gKcYcaVk-34" value="" style="endArrow=none;html=1;rounded=0;exitX=1;exitY=0.5;exitDx=0;exitDy=0;entryX=0;entryY=0.5;entryDx=0;entryDy=0;" edge="1" parent="1">
          <mxGeometry width="50" height="50" relative="1" as="geometry">
            <mxPoint x="594" y="249.5" as="sourcePoint" />
            <mxPoint x="820" y="249.5" as="targetPoint" />
          </mxGeometry>
        </mxCell>
        <mxCell id="tizdLpUgYko0gKcYcaVk-35" value="" style="endArrow=block;dashed=1;endFill=0;endSize=12;html=1;rounded=0;" edge="1" parent="1">
          <mxGeometry width="160" relative="1" as="geometry">
            <mxPoint x="790" y="260" as="sourcePoint" />
            <mxPoint x="640" y="260" as="targetPoint" />
          </mxGeometry>
        </mxCell>
        <mxCell id="tizdLpUgYko0gKcYcaVk-36" value="&lt;span style=&quot;color: rgb(56, 58, 66); font-family: jetbrains, &amp;quot;jetbrains Fallback&amp;quot;, Menlo, Monaco, monospace, monospace; font-size: 14px; text-align: left; white-space: pre; background-color: rgb(255, 255, 255);&quot;&gt;9:M&lt;/span&gt;&lt;span style=&quot;color: rgb(56, 58, 66); font-family: jetbrains, &amp;quot;jetbrains Fallback&amp;quot;, Menlo, Monaco, monospace, monospace; font-size: 14px; text-align: left; white-space: pre; background-color: rgb(255, 255, 255);&quot;&gt;ostrarConfirmacion&lt;/span&gt;" style="text;html=1;align=center;verticalAlign=middle;whiteSpace=wrap;rounded=0;" vertex="1" parent="1">
          <mxGeometry x="690" y="260" width="60" height="30" as="geometry" />
        </mxCell>
        <mxCell id="tizdLpUgYko0gKcYcaVk-37" value="" style="endArrow=none;html=1;rounded=0;exitX=1;exitY=0.3333333333333333;exitDx=0;exitDy=0;exitPerimeter=0;entryX=0;entryY=0.5;entryDx=0;entryDy=0;" edge="1" parent="1">
          <mxGeometry width="50" height="50" relative="1" as="geometry">
            <mxPoint x="220" y="249.5" as="sourcePoint" />
            <mxPoint x="474" y="249.5" as="targetPoint" />
          </mxGeometry>
        </mxCell>
        <mxCell id="tizdLpUgYko0gKcYcaVk-38" value="" style="endArrow=block;dashed=1;endFill=0;endSize=12;html=1;rounded=0;" edge="1" parent="1">
          <mxGeometry width="160" relative="1" as="geometry">
            <mxPoint x="415" y="260" as="sourcePoint" />
            <mxPoint x="265" y="260" as="targetPoint" />
          </mxGeometry>
        </mxCell>
        <mxCell id="tizdLpUgYko0gKcYcaVk-39" value="&lt;span style=&quot;color: rgb(56, 58, 66); font-family: jetbrains, &amp;quot;jetbrains Fallback&amp;quot;, Menlo, Monaco, monospace, monospace; font-size: 14px; text-align: left; white-space: pre; background-color: rgb(255, 255, 255);&quot;&gt; 10: P&lt;/span&gt;&lt;span style=&quot;color: rgb(56, 58, 66); font-family: jetbrains, &amp;quot;jetbrains Fallback&amp;quot;, Menlo, Monaco, monospace, monospace; font-size: 14px; text-align: left; white-space: pre; background-color: rgb(255, 255, 255);&quot;&gt;resentar confirmacion&lt;/span&gt;" style="text;html=1;align=center;verticalAlign=middle;whiteSpace=wrap;rounded=0;" vertex="1" parent="1">
          <mxGeometry x="320" y="270" width="60" height="30" as="geometry" />
        </mxCell>
      </root>
    </mxGraphModel>
  </diagram>
</mxfile>
